<svg width="24" height="24" viewBox="0 0 24 24" fill="none" xmlns="http://www.w3.org/2000/svg">
<g clip-path="url(#clip0_66_891)">
<path d="M12 4.7998C8.02363 4.7998 4.80005 8.02339 4.80005 11.9998C4.80005 15.3763 7.12478 18.2097 10.2608 18.9878V14.2001H8.77618V11.9998H10.2608V11.0517C10.2608 8.60112 11.3699 7.46524 13.7759 7.46524C14.232 7.46524 15.0192 7.55481 15.3411 7.64409V9.63849C15.1712 9.62064 14.876 9.61171 14.5094 9.61171C13.3289 9.61171 12.8727 10.059 12.8727 11.2216V11.9998H15.2245L14.8204 14.2001H12.8727V19.1471C16.4378 18.7165 19.2003 15.681 19.2003 11.9998C19.2 8.02339 15.9765 4.7998 12 4.7998Z" fill="white"></path>
</g>
<defs>
<clipPath id="clip0_66_891">
<rect width="14.4" height="14.4" fill="white" transform="translate(4.80005 4.7998)"></rect>
</clipPath>
</defs>
</svg>