<svg width="24" height="24" viewBox="0 0 24 24" fill="none" xmlns="http://www.w3.org/2000/svg">
<g clip-path="url(#clip0_66_894)">
<path d="M12 6.09637C13.9238 6.09637 14.1516 6.1048 14.9082 6.13855C15.6113 6.16949 15.991 6.28762 16.2441 6.38605C16.5788 6.51543 16.8207 6.67293 17.071 6.92324C17.3241 7.17637 17.4788 7.41543 17.6082 7.75012C17.7066 8.00324 17.8247 8.38574 17.8557 9.08605C17.8894 9.84543 17.8979 10.0732 17.8979 11.9942C17.8979 13.9179 17.8894 14.1457 17.8557 14.9023C17.8247 15.6054 17.7066 15.9851 17.6082 16.2382C17.4788 16.5729 17.3213 16.8148 17.071 17.0651C16.8179 17.3182 16.5788 17.4729 16.2441 17.6023C15.991 17.7007 15.6085 17.8189 14.9082 17.8498C14.1488 17.8836 13.921 17.892 12 17.892C10.0763 17.892 9.84849 17.8836 9.09192 17.8498C8.3888 17.8189 8.00911 17.7007 7.75599 17.6023C7.4213 17.4729 7.17942 17.3154 6.92911 17.0651C6.67599 16.812 6.5213 16.5729 6.39192 16.2382C6.29349 15.9851 6.17536 15.6026 6.14442 14.9023C6.11067 14.1429 6.10224 13.9151 6.10224 11.9942C6.10224 10.0704 6.11067 9.84262 6.14442 9.08605C6.17536 8.38293 6.29349 8.00324 6.39192 7.75012C6.5213 7.41543 6.6788 7.17355 6.92911 6.92324C7.18224 6.67012 7.4213 6.51543 7.75599 6.38605C8.00911 6.28762 8.39161 6.16949 9.09192 6.13855C9.84849 6.1048 10.0763 6.09637 12 6.09637ZM12 4.7998C10.0454 4.7998 9.80067 4.80824 9.03286 4.84199C8.26786 4.87574 7.74192 4.99949 7.2863 5.17668C6.81099 5.3623 6.4088 5.60699 6.00942 6.00918C5.60724 6.40855 5.36255 6.81074 5.17692 7.28324C4.99974 7.74168 4.87599 8.2648 4.84224 9.0298C4.80849 9.80043 4.80005 10.0451 4.80005 11.9998C4.80005 13.9545 4.80849 14.1992 4.84224 14.967C4.87599 15.732 4.99974 16.2579 5.17692 16.7136C5.36255 17.1889 5.60724 17.5911 6.00942 17.9904C6.4088 18.3898 6.81099 18.6373 7.28349 18.8201C7.74192 18.9973 8.26505 19.1211 9.03005 19.1548C9.79786 19.1886 10.0425 19.197 11.9972 19.197C13.9519 19.197 14.1966 19.1886 14.9644 19.1548C15.7294 19.1211 16.2554 18.9973 16.711 18.8201C17.1835 18.6373 17.5857 18.3898 17.985 17.9904C18.3844 17.5911 18.6319 17.1889 18.8147 16.7164C18.9919 16.2579 19.1157 15.7348 19.1494 14.9698C19.1832 14.202 19.1916 13.9573 19.1916 12.0026C19.1916 10.0479 19.1832 9.80324 19.1494 9.03543C19.1157 8.27043 18.9919 7.74449 18.8147 7.28887C18.6375 6.81074 18.3929 6.40855 17.9907 6.00918C17.5913 5.6098 17.1891 5.3623 16.7166 5.17949C16.2582 5.0023 15.7351 4.87855 14.97 4.8448C14.1994 4.80824 13.9547 4.7998 12 4.7998Z" fill="white"></path>
<path d="M11.9973 8.30469C9.95539 8.30469 8.29883 9.96125 8.29883 12.0031C8.29883 14.045 9.95539 15.7016 11.9973 15.7016C14.0391 15.7016 15.6957 14.045 15.6957 12.0031C15.6957 9.96125 14.0391 8.30469 11.9973 8.30469ZM11.9973 14.4022C10.6726 14.4022 9.5982 13.3278 9.5982 12.0031C9.5982 10.6784 10.6726 9.60406 11.9973 9.60406C13.322 9.60406 14.3963 10.6784 14.3963 12.0031C14.3963 13.3278 13.322 14.4022 11.9973 14.4022Z" fill="white"></path>
<path d="M16.7083 8.15543C16.7083 8.63356 16.3202 9.01887 15.8449 9.01887C15.3668 9.01887 14.9814 8.63074 14.9814 8.15543C14.9814 7.67731 15.3696 7.29199 15.8449 7.29199C16.3202 7.29199 16.7083 7.68012 16.7083 8.15543Z" fill="white"></path>
</g>
<defs>
<clipPath id="clip0_66_894">
<rect width="14.4" height="14.4" fill="white" transform="translate(4.80005 4.7998)"></rect>
</clipPath>
</defs>
</svg>