<svg width="24" height="24" viewBox="0 0 24 24" fill="none" xmlns="http://www.w3.org/2000/svg">
<g clip-path="url(#clip0_66_899)">
<path d="M18.1341 4.7998H5.86317C5.27536 4.7998 4.80005 5.26387 4.80005 5.83762V18.1592C4.80005 18.7329 5.27536 19.1998 5.86317 19.1998H18.1341C18.7219 19.1998 19.2 18.7329 19.2 18.162V5.83762C19.2 5.26387 18.7219 4.7998 18.1341 4.7998ZM9.07224 17.0707H6.93474V10.197H9.07224V17.0707ZM8.00349 9.26043C7.31724 9.26043 6.76317 8.70637 6.76317 8.02293C6.76317 7.33949 7.31724 6.78543 8.00349 6.78543C8.68692 6.78543 9.24099 7.33949 9.24099 8.02293C9.24099 8.70355 8.68692 9.26043 8.00349 9.26043ZM17.071 17.0707H14.9363V13.7295C14.9363 12.9336 14.9222 11.907 13.8254 11.907C12.7144 11.907 12.5457 12.7761 12.5457 13.6732V17.0707H10.4138V10.197H12.4613V11.1364H12.4894C12.7735 10.5964 13.471 10.0254 14.5088 10.0254C16.6716 10.0254 17.071 11.4486 17.071 13.2992V17.0707Z" fill="white"></path>
</g>
<defs>
<clipPath id="clip0_66_899">
<rect width="14.4" height="14.4" fill="white" transform="translate(4.80005 4.7998)"></rect>
</clipPath>
</defs>
</svg>