<svg width="24" height="24" viewBox="0 0 24 24" fill="none" xmlns="http://www.w3.org/2000/svg">
<g clip-path="url(#clip0_66_905)">
<path d="M18.3091 8.41055C17.4873 8.41055 16.729 8.1383 16.1201 7.67902C15.4218 7.15252 14.92 6.3802 14.7428 5.49005C14.6989 5.27011 14.6753 5.04314 14.6731 4.81055H12.3255V11.2253L12.3227 14.739C12.3227 15.6783 11.711 16.4748 10.863 16.755C10.6169 16.8362 10.3511 16.8748 10.0744 16.8596C9.72111 16.8402 9.39007 16.7336 9.10236 16.5615C8.49007 16.1953 8.07495 15.531 8.0637 14.771C8.04598 13.5833 9.00617 12.615 10.193 12.615C10.4273 12.615 10.6523 12.6532 10.863 12.7227V10.9694V10.3391C10.6408 10.3062 10.4147 10.289 10.186 10.289C8.88692 10.289 7.67192 10.829 6.80342 11.8019C6.14698 12.537 5.75323 13.475 5.69248 14.4585C5.61289 15.7506 6.08567 16.9788 7.00254 17.885C7.13726 18.018 7.27873 18.1415 7.42667 18.2554C8.21276 18.8604 9.17379 19.1883 10.186 19.1883C10.4147 19.1883 10.6408 19.1715 10.863 19.1385C11.8085 18.9985 12.681 18.5656 13.3695 17.885C14.2155 17.0489 14.6829 15.9388 14.688 14.7572L14.6759 9.51023C15.0795 9.82158 15.5208 10.0792 15.9944 10.2792C16.731 10.59 17.512 10.7475 18.3158 10.7472V9.04252V8.40998C18.3164 8.41055 18.3096 8.41055 18.3091 8.41055Z" fill="white"></path>
</g>
<defs>
<clipPath id="clip0_66_905">
<rect width="14.4" height="14.4" fill="white" transform="translate(4.80005 4.7998)"></rect>
</clipPath>
</defs>
</svg>