<svg width="1338" height="146" viewBox="0 0 1338 146" fill="none" xmlns="http://www.w3.org/2000/svg">
<g clip-path="url(#clip0_918_6934)">
<path d="M131.346 52.2344H106.433V162.926H131.346V52.2344Z" fill="#3DEDEC"></path>
<path d="M285.549 162.924C264.228 162.924 248.324 157.999 235.548 147.455L229.754 142.559L248.121 126.742L252.35 130.595C260.085 137.605 270.514 140.879 285.172 140.879C308.029 140.879 312.838 133.578 312.838 127.466C312.838 122.222 310.173 118.543 297.108 117.472L278.336 116.052C243.573 113.561 238.242 94.9335 238.242 84.1859C238.242 63.7047 257.217 49.9443 285.404 49.9443C301.888 49.9443 317.676 54.0869 328.858 61.3582L336.013 66.0512L317.908 81.6366L313.881 79.1163C305.326 74.0279 295.498 71.4854 285.549 71.7871C271.064 71.7871 263.069 76.1904 263.069 84.1859C263.069 89.4004 265.966 93.1084 280.161 94.1803L298.382 95.5998C315.185 96.8744 337.52 101.596 337.52 127.466C337.52 149.019 317.241 162.924 285.636 162.924" fill="#3DEDEC"></path>
<path d="M400.587 162.922C380.308 162.922 366.838 150.059 366.838 130.911V72.9724H351.31V52.1435H366.838V20.9727H391.751V52.1435H417.418V72.7696H391.751V131.113C391.751 136.907 393.605 140.876 402.701 140.876H417.418V162.922H400.587Z" fill="#3DEDEC"></path>
<path d="M584.859 162.923C571.848 163.295 559.145 158.93 549.111 150.64C534.423 137.98 532.743 119.324 532.743 106.375C532.743 93.4255 534.423 74.7983 549.111 62.1388C559.308 54.1489 571.889 49.8071 584.844 49.8071C597.799 49.8071 610.38 54.1489 620.578 62.1388C635.265 74.7983 636.945 93.4545 636.945 106.375C636.945 119.295 635.265 137.98 620.578 150.64C610.557 158.936 597.864 163.312 584.859 162.952M584.859 71.8724C577.816 71.728 570.957 74.124 565.536 78.6223C558.265 84.8796 557.657 95.772 557.657 106.375C557.657 116.977 558.265 127.899 565.536 134.156C571.086 138.383 577.869 140.672 584.844 140.672C591.82 140.672 598.603 138.383 604.152 134.156C611.424 127.899 612.032 117.006 612.032 106.375C612.032 95.743 611.424 84.8796 604.152 78.6223C598.743 74.1237 591.893 71.7272 584.859 71.8724Z" fill="#3DEDEC"></path>
<path d="M959.169 162.924C946.278 162.924 934.603 159.244 927.303 152.842C916.121 143.195 910.472 127.581 910.472 106.492C910.472 85.402 916.121 69.6717 927.274 60.1408C934.719 53.7387 946.393 50.0596 959.285 50.0596C967.411 49.7669 975.499 51.3013 982.953 54.5498L986.458 56.201V4.34619H1011.37V161.707H986.458V156.782L982.953 158.433C975.499 161.682 967.411 163.216 959.285 162.924M960.907 71.8444C942.309 71.8444 935.385 81.1725 935.385 106.347C935.385 131.521 942.309 140.878 960.907 140.878C979.505 140.878 986.458 131.521 986.458 106.347C986.458 81.1725 979.447 71.8444 960.791 71.8444" fill="#3DEDEC"></path>
<path d="M1089.04 162.92C1054.27 162.92 1034.34 142.294 1034.34 106.343C1034.34 71.5797 1054.22 49.7949 1086.2 49.7949C1118.18 49.7949 1138.08 70.5369 1138.08 103.909V115.034H1059.49L1060.01 117.93C1062.73 132.994 1072.73 140.642 1089.73 140.642C1094.71 140.883 1099.69 140.094 1104.35 138.325C1109.01 136.555 1113.25 133.843 1116.82 130.358L1120.59 127.114L1140.54 140.729L1134.2 146.233C1122.61 156.17 1110.53 162.804 1089.04 162.804M1086.34 71.8405C1075.8 71.8405 1066.53 76.8521 1062.73 84.6449C1061.76 86.5961 1060.99 88.645 1060.45 90.7574L1059.72 93.7991H1112.97L1112.24 90.7574C1111.71 88.6321 1110.94 86.5724 1109.95 84.6159C1106.1 76.8232 1096.86 71.8405 1086.34 71.8405Z" fill="#3DEDEC"></path>
<path d="M1286.23 162.924C1264.88 162.924 1249.01 157.999 1236.23 147.455L1230.44 142.559L1248.57 126.742L1252.77 130.595C1260.54 137.605 1270.96 140.879 1285.62 140.879C1308.48 140.879 1313.29 133.578 1313.29 127.466C1313.29 122.222 1310.62 118.543 1297.56 117.472L1278.79 116.052C1243.88 113.561 1238.69 94.9335 1238.69 84.1859C1238.69 63.7047 1257.64 49.9443 1285.85 49.9443C1302.34 49.9443 1318.13 54.0869 1329.16 61.3292L1336.32 66.0512L1318.21 81.6366L1314.19 79.1163C1305.63 74.0309 1295.8 71.4886 1285.85 71.7871C1271.37 71.7871 1263.37 76.1904 1263.37 84.1859C1263.37 89.4004 1266.27 93.1084 1280.47 94.1803L1298.8 95.5998C1315.63 96.8744 1337.97 101.596 1337.97 127.466C1337.97 149.019 1317.69 162.924 1286.09 162.924" fill="#3DEDEC"></path>
<path d="M866.382 162.923V95.83C866.382 80.5053 858.27 73.0602 841.555 73.0602L839.006 73.234H838.339H837.267H836.051C819.365 73.234 811.224 80.6791 811.224 96.0038V162.923H786.311V93.9759C786.086 87.9064 787.236 81.8645 789.674 76.3016C792.112 70.7386 795.775 65.7981 800.39 61.8491C809.081 54.6648 820.668 51.0146 834.66 51.0146H839.527H842.974C857.082 51.0146 868.612 54.6648 877.216 61.8491C881.834 65.7967 885.502 70.7361 887.945 76.2989C890.387 81.8617 891.543 87.9043 891.324 93.9759V162.923H866.382Z" fill="#3DEDEC"></path>
<path d="M710.848 162.836H706.328C692.365 162.923 680.778 159.33 672.087 152.088C667.463 148.145 663.793 143.206 661.349 137.642C658.906 132.078 657.754 126.034 657.979 119.961V51.0146H682.892V118.136C682.892 133.432 691.033 140.877 707.719 140.877L710.297 140.703H710.963H712.035H713.223C729.938 140.703 738.05 133.258 738.05 117.962V51.0146H762.992V119.961C763.211 126.033 762.055 132.076 759.613 137.638C757.17 143.201 753.502 148.141 748.884 152.088C740.193 159.273 728.75 162.923 714.643 162.923H710.848" fill="#3DEDEC"></path>
<path d="M1159.9 162.923V93.9761C1159.67 87.9066 1160.82 81.8647 1163.26 76.3018C1165.7 70.7388 1169.36 65.7983 1173.98 61.8493C1182.67 54.665 1194.11 51.0148 1208.25 51.0148H1213.08H1216.53C1219.8 51.0067 1223.06 51.2489 1226.29 51.7391V74.5668C1222.67 73.4983 1218.91 72.9903 1215.14 73.0604L1212.56 73.2342H1211.92H1210.85H1209.64C1192.92 73.2342 1184.81 80.6793 1184.81 96.004V162.923H1159.9Z" fill="#3DEDEC"></path>
<path d="M121.672 32.7914C118.627 32.8086 115.646 31.9218 113.106 30.2433C110.565 28.5648 108.58 26.1701 107.401 23.3626C106.223 20.555 105.904 17.4609 106.486 14.472C107.067 11.4832 108.522 8.73411 110.667 6.57297C112.812 4.41182 115.55 2.93584 118.534 2.33195C121.519 1.72806 124.615 2.02344 127.432 3.18067C130.248 4.3379 132.658 6.30493 134.355 8.83262C136.053 11.3603 136.962 14.3349 136.968 17.3798C136.968 21.4472 135.36 25.3498 132.495 28.2367C129.63 31.1236 125.739 32.7608 121.672 32.7914Z" fill="#3DEDEC"></path>
<path d="M162.228 162.923V93.9761C162.003 87.9066 163.153 81.8647 165.591 76.3018C168.029 70.7388 171.692 65.7983 176.307 61.8493C184.997 54.665 196.44 51.0148 210.577 51.0148H215.415H218.862C222.13 51.0067 225.394 51.2489 228.625 51.7391V74.5668C224.941 73.4776 221.11 72.9694 217.269 73.0604L214.691 73.2342H214.025H212.953H211.765C195.05 73.2342 186.938 80.6793 186.938 96.004V162.923H162.228Z" fill="#3DEDEC"></path>
<path d="M23.1754 4.05322H92.2958V27.9528H34.9079C33.3713 27.9528 31.8976 28.5632 30.811 29.6498C29.7245 30.7363 29.114 32.21 29.114 33.7466V71.957H87.7766V95.5959H29.114V163.529H0V27.2286C0 21.0821 2.44168 15.1873 6.7879 10.8411C11.1341 6.4949 17.0289 4.05322 23.1754 4.05322Z" fill="#3DEDEC"></path>
<path d="M457.365 0H526.486V23.8996H469.098C467.561 23.8996 466.088 24.51 465.001 25.5966C463.914 26.6831 463.304 28.1568 463.304 29.6934V67.9038H521.996V91.5716H463.304V159.475H434.19V23.1754C434.19 17.0289 436.632 11.1341 440.978 6.7879C445.324 2.44168 451.219 0 457.365 0Z" fill="#3DEDEC"></path>
</g>
<defs>
<clipPath id="clip0_918_6934">
<rect width="1338" height="146" fill="white"></rect>
</clipPath>
</defs>
</svg>