<svg width="254" height="56" viewBox="0 0 254 56" fill="none" xmlns="http://www.w3.org/2000/svg">
<path d="M28.0344 55.8616C22.673 55.8616 17.4321 54.2718 12.9743 51.2932C8.51654 48.3146 5.04213 44.081 2.99044 39.1278C0.938747 34.1745 0.401931 28.7242 1.44787 23.4659C2.49382 18.2075 5.07554 13.3775 8.86657 9.58645C12.6576 5.79542 17.4877 3.2137 22.746 2.16775C28.0043 1.12181 33.4547 1.65863 38.4079 3.71032C43.3611 5.76201 47.5947 9.23642 50.5733 13.6942C53.5519 18.152 55.1417 23.3929 55.1417 28.7542C55.1329 35.9409 52.2742 42.8306 47.1925 47.9123C42.1107 52.9941 35.221 55.8528 28.0344 55.8616Z" fill="#0D102F"></path>
<path d="M28.0508 55.965H27.5625C27.2398 55.965 26.7639 55.965 26.1349 55.8947C24.3252 55.7611 22.5331 55.4493 20.7846 54.9636C19.5345 54.6289 18.3105 54.2029 17.1226 53.6892C15.7124 53.0983 14.3545 52.3896 13.0633 51.5706C9.93107 49.6054 7.21037 47.0505 5.05237 44.0479C2.46448 40.4343 0.806033 36.2392 0.223446 31.8328C0.13655 31.2494 0.0993095 30.6535 0.037241 30.0577L0 29.1556V28.7046V28.237C0 27.9473 0 27.6494 0 27.3556C0 27.0618 0.037241 26.7391 0.0537926 26.4287C0.07862 25.7956 0.165516 25.1874 0.231722 24.5667C0.400617 23.3169 0.652201 22.0797 0.984819 20.8633C1.14206 20.2467 1.35723 19.6219 1.55171 19.0302C1.74619 18.4385 1.98619 17.8136 2.25929 17.2219C4.388 12.265 7.88071 8.01467 12.3309 4.96547C13.4734 4.1941 14.668 3.5028 15.9061 2.89653C17.1583 2.28722 18.4526 1.76865 19.7791 1.34482C21.1156 0.9217 22.4804 0.593983 23.8632 0.364135C24.5543 0.264825 25.2494 0.161378 25.9529 0.111723C26.3005 0.07862 26.6522 0.0455168 27.0039 0.0413789L28.117 0C28.7915 0 29.4163 0 30.1611 0.0496547C30.9059 0.0993094 31.568 0.165516 32.2549 0.248274C36.453 0.804185 40.4784 2.27309 44.0479 4.55168C48.7117 7.5277 52.4071 11.7983 54.6823 16.8412C54.9678 17.4495 55.1871 18.0826 55.4354 18.6991C55.6836 19.3157 55.8491 19.9405 56.0395 20.586C56.4013 21.8403 56.6696 23.1196 56.8422 24.4136C56.9126 25.0549 57.0036 25.6922 57.0326 26.3253C57.0326 26.6439 57.0781 26.9625 57.0864 27.277C57.0947 27.5915 57.0864 27.9101 57.0864 28.2204V28.7377V29.1763C57.0864 29.4659 57.0574 29.7597 57.045 30.0494C56.9871 30.6701 56.9457 31.328 56.8547 31.9321C56.5311 34.2815 55.9009 36.5783 54.9802 38.7638C54.115 40.7863 53.0151 42.7001 51.703 44.4658C49.4213 47.4866 46.5635 50.0251 43.2948 51.9347C41.9599 52.7237 40.5604 53.3978 39.1114 53.9499C37.8986 54.4271 36.6543 54.8197 35.3873 55.125C33.6235 55.5604 31.8223 55.8264 30.008 55.9195C29.379 55.9691 28.8949 55.9485 28.5722 55.9609H28.0756L28.0508 55.965ZM28.0508 55.576L28.5349 55.5554C28.8577 55.5554 29.3335 55.5554 29.9459 55.4685C31.726 55.328 33.4838 54.9823 35.1845 54.4381C37.8141 53.6174 40.2861 52.3583 42.4962 50.714C45.3157 48.6213 47.6854 45.9828 49.4644 42.9555C51.5175 39.4598 52.763 35.5492 53.1099 31.5101C53.1678 30.9804 53.1761 30.4839 53.2092 29.9542C53.2092 29.6646 53.2092 29.3749 53.2092 29.0811V28.6673V28.3032C53.2092 28.0301 53.2092 27.757 53.1802 27.4756C53.1512 27.1942 53.1347 26.9294 53.1099 26.648C53.0768 26.0977 52.9816 25.5515 52.9071 24.9929C52.5544 22.7513 51.9089 20.5658 50.9871 18.4922C48.5676 12.9503 44.2819 8.43178 38.8755 5.72271C37.7645 5.17549 36.6153 4.70945 35.4369 4.32824C34.2495 3.95038 33.0369 3.65723 31.808 3.451C31.1873 3.35997 30.5666 3.26066 29.9708 3.21928C29.3749 3.1779 28.6839 3.14066 28.0301 3.10756H27.128C26.8135 3.10756 26.4991 3.10756 26.1846 3.1448C25.5598 3.17376 24.9432 3.24825 24.3143 3.31859C23.0699 3.48886 21.8392 3.74745 20.6315 4.09238C19.4278 4.43949 18.2509 4.87374 17.1102 5.39168C11.463 7.9727 6.92708 12.491 4.3241 18.1281C4.05514 18.6619 3.85652 19.2247 3.62479 19.7833C3.39307 20.3419 3.21101 20.8922 3.0579 21.4633C2.7122 22.5772 2.44397 23.7137 2.25515 24.8646C2.17653 25.4356 2.08136 26.0108 2.03998 26.5653C2.01929 26.8467 1.98619 27.1156 1.96964 27.3929C1.95309 27.6701 1.96964 27.9804 1.93653 28.2742C1.90343 28.8204 1.93653 29.3956 1.93653 29.9542C1.93653 30.5128 1.98205 31.0673 2.03998 31.6094C2.09791 32.1514 2.14757 32.7059 2.24688 33.2397C2.29239 33.5128 2.3255 33.7818 2.37929 34.0673C2.43308 34.3528 2.48687 34.5969 2.5448 34.8618C2.63998 35.3914 2.79722 35.9004 2.92135 36.4176C3.04549 36.9348 3.21928 37.4314 3.39721 37.9238C4.06213 39.8397 4.93783 41.6757 6.00822 43.3982C7.90943 46.4401 10.4115 49.0618 13.3613 51.103C15.6549 52.6818 18.194 53.8703 20.8757 54.6202C22.5971 55.1122 24.368 55.4106 26.1556 55.5098C26.768 55.5678 27.2522 55.5512 27.5749 55.5678H28.0632L28.0508 55.576Z" fill="#FFBC00"></path>
<path d="M44.8118 39.8479H23.679V33.3455C23.679 32.1534 23.9716 31.0697 24.5568 30.0943C25.142 29.0973 25.9223 28.3062 26.8976 27.7209C27.8947 27.1357 28.9893 26.8431 30.1814 26.8431H38.3094C39.198 26.8431 39.9566 26.5288 40.5852 25.9003C41.2354 25.25 41.5606 24.4806 41.5606 23.5919C41.5606 22.7033 41.2354 21.9446 40.5852 21.3161C39.9566 20.6658 39.198 20.3407 38.3094 20.3407H25.3046V17.0895H38.3094C39.5015 17.0895 40.5852 17.3821 41.5606 17.9673C42.5576 18.5525 43.3487 19.3437 43.9339 20.3407C44.5192 21.3161 44.8118 22.3998 44.8118 23.5919C44.8118 24.784 44.5192 25.8786 43.9339 26.8756C43.3487 27.851 42.5576 28.6313 41.5606 29.2165C40.5852 29.8017 39.5015 30.0943 38.3094 30.0943H30.1814C29.2927 30.0943 28.5232 30.4194 27.873 31.0697C27.2228 31.6982 26.8976 32.4569 26.8976 33.3455V36.5967H44.8118V39.8479Z" fill="#33CCCC"></path>
<path d="M14.2468 39.9389V26.7846H11.9792V23.7722H14.2468V21.6412C14.2468 18.844 16.2289 16.9654 19.175 16.9654H24.2729L24.244 20.2095H19.4854C18.1571 20.2095 17.884 20.7805 17.884 21.637V23.8053H21.6247V26.8177H17.9006V39.9389H14.2468Z" fill="#33CCCC"></path>
<g clip-path="url(#clip0_860_7270)">
<path d="M81.6443 17.7639H78.0857V33.5748H81.6443V17.7639Z" fill="#0D102F"></path>
<path d="M103.67 33.5748C100.625 33.5748 98.3531 32.8714 96.5283 31.3652L95.7007 30.6659L98.3241 28.4066L98.9282 28.9569C100.033 29.9583 101.523 30.4259 103.616 30.4259C106.881 30.4259 107.568 29.3831 107.568 28.51C107.568 27.7611 107.187 27.2356 105.321 27.0825L102.64 26.8797C97.6745 26.5239 96.9131 23.8632 96.9131 22.328C96.9131 19.4025 99.6234 17.437 103.65 17.437C106.004 17.437 108.259 18.0288 109.856 19.0674L110.878 19.7377L108.292 21.9639L107.717 21.6039C106.495 20.8771 105.091 20.5139 103.67 20.557C101.601 20.557 100.459 21.186 100.459 22.328C100.459 23.0729 100.873 23.6025 102.901 23.7556L105.503 23.9584C107.903 24.1404 111.094 24.8149 111.094 28.51C111.094 31.5886 108.197 33.5748 103.683 33.5748" fill="#0D102F"></path>
<path d="M120.102 33.5748C117.205 33.5748 115.281 31.7376 115.281 29.0025V20.7267H113.063V17.7515H115.281V13.2992H118.84V17.7515H122.506V20.6977H118.84V29.0314C118.84 29.859 119.105 30.4259 120.404 30.4259H122.506V33.5748H120.102Z" fill="#0D102F"></path>
<path d="M146.423 33.5748C144.565 33.628 142.75 33.0046 141.317 31.8204C139.219 30.0121 138.979 27.3473 138.979 25.4977C138.979 23.648 139.219 20.9873 141.317 19.1791C142.774 18.0378 144.571 17.4177 146.421 17.4177C148.271 17.4177 150.069 18.0378 151.525 19.1791C153.623 20.9873 153.863 23.6522 153.863 25.4977C153.863 27.3432 153.623 30.0121 151.525 31.8204C150.094 33.0055 148.281 33.6304 146.423 33.579M146.423 20.5694C145.417 20.5488 144.437 20.891 143.663 21.5336C142.624 22.4273 142.538 23.9832 142.538 25.4977C142.538 27.0121 142.624 28.5721 143.663 29.4659C144.456 30.0696 145.425 30.3966 146.421 30.3966C147.417 30.3966 148.386 30.0696 149.179 29.4659C150.218 28.5721 150.304 27.0163 150.304 25.4977C150.304 23.979 150.218 22.4273 149.179 21.5336C148.406 20.891 147.428 20.5487 146.423 20.5694Z" fill="#0D102F"></path>
<path d="M199.889 33.5748C198.047 33.5748 196.38 33.0493 195.337 32.1349C193.74 30.7569 192.933 28.5266 192.933 25.5142C192.933 22.5018 193.74 20.255 195.333 18.8936C196.396 17.9791 198.064 17.4536 199.905 17.4536C201.066 17.4118 202.221 17.631 203.286 18.095L203.787 18.3308V10.924H207.345V33.401H203.787V32.6976L203.286 32.9335C202.221 33.3975 201.066 33.6166 199.905 33.5748M200.137 20.5653C197.48 20.5653 196.491 21.8977 196.491 25.4935C196.491 29.0894 197.48 30.4259 200.137 30.4259C202.793 30.4259 203.787 29.0894 203.787 25.4935C203.787 21.8977 202.785 20.5653 200.12 20.5653" fill="#0D102F"></path>
<path d="M218.439 33.5748C213.473 33.5748 210.626 30.6286 210.626 25.4935C210.626 20.528 213.465 17.4164 218.033 17.4164C222.602 17.4164 225.444 20.3791 225.444 25.1459V26.7349H214.218L214.293 27.1487C214.682 29.3004 216.109 30.3928 218.538 30.3928C219.249 30.4272 219.96 30.3145 220.626 30.0618C221.291 29.809 221.898 29.4216 222.407 28.9238L222.945 28.4604L225.796 30.4052L224.89 31.1914C223.235 32.6107 221.509 33.5583 218.439 33.5583M218.054 20.5653C216.548 20.5653 215.224 21.2811 214.682 22.3942C214.542 22.673 214.433 22.9656 214.355 23.2673L214.251 23.7018H221.857L221.753 23.2673C221.677 22.9638 221.567 22.6696 221.426 22.3901C220.876 21.277 219.556 20.5653 218.054 20.5653Z" fill="#0D102F"></path>
<path d="M246.606 33.5748C243.556 33.5748 241.288 32.8714 239.464 31.3652L238.636 30.6659L241.226 28.4066L241.826 28.9569C242.935 29.9583 244.425 30.4259 246.519 30.4259C249.783 30.4259 250.47 29.3831 250.47 28.51C250.47 27.7611 250.09 27.2356 248.223 27.0825L245.542 26.8797C240.556 26.5239 239.815 23.8632 239.815 22.328C239.815 19.4025 242.521 17.437 246.552 17.437C248.906 17.437 251.161 18.0288 252.738 19.0632L253.76 19.7377L251.174 21.9639L250.599 21.6039C249.377 20.8775 247.973 20.5144 246.552 20.557C244.483 20.557 243.341 21.186 243.341 22.328C243.341 23.0729 243.755 23.6025 245.782 23.7556L248.401 23.9584C250.806 24.1404 253.996 24.8149 253.996 28.51C253.996 31.5886 251.099 33.5748 246.585 33.5748" fill="#0D102F"></path>
<path d="M186.635 33.5748V23.9915C186.635 21.8025 185.477 20.7391 183.089 20.7391L182.725 20.7639H182.63H182.477H182.303C179.919 20.7639 178.757 21.8274 178.757 24.0163V33.5748H175.198V23.7266C175.166 22.8597 175.33 21.9967 175.678 21.2021C176.027 20.4075 176.55 19.7018 177.209 19.1377C178.45 18.1115 180.106 17.5901 182.104 17.5901H182.799H183.292C185.307 17.5901 186.954 18.1115 188.183 19.1377C188.842 19.7016 189.366 20.4071 189.715 21.2017C190.064 21.9963 190.229 22.8594 190.198 23.7266V33.5748H186.635Z" fill="#0D102F"></path>
<path d="M164.419 33.5624H163.773C161.779 33.5748 160.123 33.0617 158.882 32.0273C158.222 31.464 157.697 30.7586 157.348 29.9638C156.999 29.1691 156.835 28.3057 156.867 27.4383V17.5901H160.426V27.1776C160.426 29.3625 161.588 30.4259 163.972 30.4259L164.34 30.4011H164.435H164.588H164.758C167.146 30.4011 168.304 29.3376 168.304 27.1528V17.5901H171.867V27.4383C171.898 28.3056 171.733 29.1687 171.384 29.9633C171.035 30.7579 170.511 31.4634 169.852 32.0273C168.61 33.0535 166.976 33.5748 164.961 33.5748H164.419" fill="#0D102F"></path>
<path d="M228.56 33.5748V23.7266C228.528 22.8597 228.692 21.9967 229.04 21.2021C229.389 20.4075 229.912 19.7018 230.571 19.1377C231.812 18.1115 233.447 17.5901 235.466 17.5901H236.157H236.65C237.116 17.589 237.583 17.6236 238.044 17.6936V20.9543C237.527 20.8016 236.99 20.7291 236.451 20.7391L236.083 20.7639H235.992H235.839H235.665C233.277 20.7639 232.119 21.8273 232.119 24.0163V33.5748H228.56Z" fill="#0D102F"></path>
<path d="M80.2621 14.9874C79.8272 14.9899 79.4014 14.8632 79.0385 14.6234C78.6756 14.3837 78.3921 14.0416 78.2237 13.6406C78.0554 13.2396 78.0099 12.7976 78.0929 12.3707C78.1759 11.9438 78.3838 11.5511 78.6902 11.2424C78.9966 10.9337 79.3877 10.7229 79.8139 10.6366C80.2402 10.5504 80.6825 10.5926 81.0848 10.7579C81.4871 10.9232 81.8313 11.2041 82.0737 11.5652C82.3162 11.9262 82.4461 12.3511 82.4469 12.786C82.4469 13.367 82.2173 13.9244 81.808 14.3368C81.3988 14.7492 80.8431 14.983 80.2621 14.9874Z" fill="#0D102F"></path>
<path d="M86.0552 33.5748V23.7266C86.0232 22.8597 86.1874 21.9967 86.5356 21.2021C86.8838 20.4075 87.4071 19.7018 88.0662 19.1377C89.3076 18.1115 90.942 17.5901 92.9613 17.5901H93.6524H94.1448C94.6116 17.589 95.0777 17.6236 95.5392 17.6936V20.9543C95.013 20.7987 94.4658 20.7261 93.9172 20.7391L93.5489 20.7639H93.4537H93.3006H93.131C90.7434 20.7639 89.5848 21.8273 89.5848 24.0163V33.5748H86.0552Z" fill="#0D102F"></path>
<path d="M66.1934 10.8826H76.0664V14.2964H67.8692C67.6497 14.2964 67.4392 14.3836 67.284 14.5388C67.1288 14.694 67.0416 14.9045 67.0416 15.124V20.5819H75.4209V23.9584H67.0416V33.6617H62.8831V14.1929C62.8831 13.315 63.2318 12.473 63.8526 11.8522C64.4734 11.2314 65.3154 10.8826 66.1934 10.8826Z" fill="#0D102F"></path>
<path d="M128.212 10.3033H138.085V13.7171H129.888C129.669 13.7171 129.458 13.8043 129.303 13.9595C129.148 14.1147 129.06 14.3252 129.06 14.5447V20.0025H137.444V23.3832H129.06V33.0824H124.902V13.6136C124.902 12.7357 125.251 11.8937 125.871 11.2729C126.492 10.6521 127.334 10.3033 128.212 10.3033Z" fill="#0D102F"></path>
</g>
<path d="M64.5734 40.389L66.4662 46.1134H66.5407L68.4299 40.389H69.8788L67.3149 47.6617H65.6885L63.1281 40.389H64.5734ZM74.6367 47.6617V40.389H79.3668V41.4934H75.9542V43.4678H79.1218V44.5722H75.9542V46.5573H79.3952V47.6617H74.6367ZM90.4875 40.389V47.6617H89.3156L85.8888 42.7079H85.8284V47.6617H84.5109V40.389H85.6899L89.1132 45.3464H89.1771V40.389H90.4875ZM95.4034 41.4934V40.389H101.206V41.4934H98.9581V47.6617H97.6513V41.4934H95.4034ZM110.709 40.389H112.027V45.1404C112.027 45.6612 111.903 46.1193 111.657 46.5147C111.413 46.9101 111.07 47.219 110.627 47.4415C110.185 47.6617 109.667 47.7718 109.076 47.7718C108.481 47.7718 107.963 47.6617 107.52 47.4415C107.077 47.219 106.734 46.9101 106.49 46.5147C106.247 46.1193 106.125 45.6612 106.125 45.1404V40.389H107.442V45.0303C107.442 45.3334 107.508 45.6032 107.641 45.84C107.776 46.0767 107.965 46.2626 108.209 46.3975C108.453 46.5301 108.742 46.5964 109.076 46.5964C109.409 46.5964 109.698 46.5301 109.942 46.3975C110.188 46.2626 110.378 46.0767 110.51 45.84C110.643 45.6032 110.709 45.3334 110.709 45.0303V40.389ZM117.259 47.6617V40.389H119.986C120.545 40.389 121.013 40.486 121.392 40.6802C121.773 40.8743 122.061 41.1466 122.255 41.4969C122.452 41.845 122.55 42.251 122.55 42.715C122.55 43.1814 122.45 43.5862 122.251 43.9295C122.055 44.2704 121.765 44.5343 121.381 44.7214C120.998 44.906 120.527 44.9984 119.968 44.9984H118.026V43.9046H119.791C120.117 43.9046 120.385 43.8596 120.593 43.7697C120.801 43.6773 120.955 43.5436 121.055 43.3684C121.157 43.1908 121.207 42.973 121.207 42.715C121.207 42.4569 121.157 42.2368 121.055 42.0545C120.953 41.8698 120.798 41.7301 120.59 41.6354C120.381 41.5384 120.113 41.4898 119.783 41.4898H118.576V47.6617H117.259ZM121.016 44.3663L122.816 47.6617H121.346L119.577 44.3663H121.016ZM127.562 47.6617V40.389H132.293V41.4934H128.88V43.4678H132.048V44.5722H128.88V46.5573H132.321V47.6617H127.562ZM147.67 42.3883C147.636 42.0781 147.497 41.8367 147.251 41.6638C147.007 41.491 146.689 41.4046 146.299 41.4046C146.024 41.4046 145.789 41.446 145.592 41.5289C145.396 41.6118 145.245 41.7242 145.141 41.8663C145.037 42.0083 144.984 42.1705 144.981 42.3528C144.981 42.5043 145.016 42.6357 145.084 42.7469C145.155 42.8582 145.251 42.9529 145.372 43.031C145.493 43.1068 145.627 43.1707 145.773 43.2228C145.92 43.2749 146.068 43.3187 146.217 43.3542L146.899 43.5246C147.174 43.5886 147.438 43.675 147.691 43.7839C147.947 43.8928 148.175 44.0301 148.376 44.1958C148.58 44.3615 148.741 44.5616 148.859 44.7959C148.978 45.0303 149.037 45.3049 149.037 45.6198C149.037 46.0459 148.928 46.4212 148.71 46.7455C148.492 47.0675 148.177 47.3196 147.765 47.5019C147.356 47.6818 146.86 47.7718 146.278 47.7718C145.712 47.7718 145.22 47.6842 144.804 47.509C144.39 47.3338 144.065 47.0781 143.831 46.742C143.599 46.4058 143.473 45.9962 143.454 45.5133H144.751C144.77 45.7666 144.848 45.9773 144.985 46.1454C145.122 46.3135 145.301 46.4389 145.521 46.5218C145.744 46.6047 145.992 46.6461 146.267 46.6461C146.553 46.6461 146.804 46.6035 147.02 46.5182C147.238 46.4307 147.408 46.3099 147.531 46.156C147.654 45.9998 147.717 45.8175 147.719 45.6092C147.717 45.4198 147.661 45.2635 147.552 45.1404C147.444 45.0149 147.291 44.9108 147.094 44.8279C146.9 44.7427 146.673 44.6669 146.412 44.6006L145.585 44.3876C144.986 44.2337 144.513 44.0005 144.165 43.688C143.819 43.3731 143.646 42.9553 143.646 42.4344C143.646 42.0059 143.762 41.6307 143.994 41.3087C144.229 40.9868 144.547 40.737 144.949 40.5594C145.352 40.3795 145.808 40.2896 146.317 40.2896C146.833 40.2896 147.285 40.3795 147.673 40.5594C148.064 40.737 148.37 40.9844 148.593 41.3016C148.815 41.6165 148.93 41.9787 148.937 42.3883H147.67ZM153.692 41.4934V40.389H159.494V41.4934H157.246V47.6617H155.94V41.4934H153.692ZM168.997 40.389H170.315V45.1404C170.315 45.6612 170.192 46.1193 169.946 46.5147C169.702 46.9101 169.358 47.219 168.916 47.4415C168.473 47.6617 167.956 47.7718 167.364 47.7718C166.77 47.7718 166.251 47.6617 165.808 47.4415C165.366 47.219 165.022 46.9101 164.779 46.5147C164.535 46.1193 164.413 45.6612 164.413 45.1404V40.389H165.73V45.0303C165.73 45.3334 165.797 45.6032 165.929 45.84C166.064 46.0767 166.254 46.2626 166.497 46.3975C166.741 46.5301 167.03 46.5964 167.364 46.5964C167.698 46.5964 167.987 46.5301 168.23 46.3975C168.477 46.2626 168.666 46.0767 168.799 45.84C168.931 45.6032 168.997 45.3334 168.997 45.0303V40.389ZM178.011 47.6617H175.547V40.389H178.061C178.783 40.389 179.403 40.5346 179.922 40.8258C180.443 41.1146 180.843 41.5301 181.122 42.0722C181.402 42.6144 181.541 43.263 181.541 44.0182C181.541 44.7758 181.4 45.4269 181.119 45.9714C180.839 46.5159 180.436 46.9337 179.908 47.2249C179.382 47.5161 178.75 47.6617 178.011 47.6617ZM176.864 46.5218H177.947C178.454 46.5218 178.877 46.4295 179.215 46.2448C179.554 46.0578 179.808 45.7796 179.979 45.4103C180.149 45.0386 180.234 44.5746 180.234 44.0182C180.234 43.4619 180.149 43.0003 179.979 42.6333C179.808 42.264 179.556 41.9882 179.222 41.8059C178.891 41.6212 178.479 41.5289 177.987 41.5289H176.864V46.5218ZM187.91 40.389V47.6617H186.593V40.389H187.91ZM199.636 44.0253C199.636 44.809 199.489 45.4801 199.195 46.0388C198.904 46.5952 198.506 47.0213 198.002 47.3173C197.5 47.6132 196.931 47.7611 196.294 47.7611C195.657 47.7611 195.087 47.6132 194.582 47.3173C194.081 47.019 193.683 46.5916 193.389 46.0353C193.098 45.4766 192.952 44.8066 192.952 44.0253C192.952 43.2417 193.098 42.5718 193.389 42.0154C193.683 41.4567 194.081 41.0294 194.582 40.7334C195.087 40.4375 195.657 40.2896 196.294 40.2896C196.931 40.2896 197.5 40.4375 198.002 40.7334C198.506 41.0294 198.904 41.4567 199.195 42.0154C199.489 42.5718 199.636 43.2417 199.636 44.0253ZM198.311 44.0253C198.311 43.4737 198.225 43.0085 198.052 42.6298C197.881 42.2486 197.645 41.961 197.342 41.7668C197.039 41.5703 196.689 41.4721 196.294 41.4721C195.899 41.4721 195.55 41.5703 195.246 41.7668C194.943 41.961 194.706 42.2486 194.533 42.6298C194.362 43.0085 194.277 43.4737 194.277 44.0253C194.277 44.577 194.362 45.0433 194.533 45.4245C194.706 45.8033 194.943 46.0909 195.246 46.2874C195.55 46.4816 195.899 46.5786 196.294 46.5786C196.689 46.5786 197.039 46.4816 197.342 46.2874C197.645 46.0909 197.881 45.8033 198.052 45.4245C198.225 45.0433 198.311 44.577 198.311 44.0253Z" fill="#0D102F"></path>
<defs>
<clipPath id="clip0_860_7270">
<rect width="191.117" height="23.3584" fill="white" transform="translate(62.8831 10.3033)"></rect>
</clipPath>
</defs>
</svg>