<svg width="64" height="64" viewBox="0 0 64 64" fill="none" xmlns="http://www.w3.org/2000/svg">
<g clip-path="url(#clip0_913_8063)">
<path d="M26.8643 21.8398C21.7611 21.8398 17.6094 25.9916 17.6094 31.0948C17.6094 36.1979 21.761 40.3497 26.8643 40.3497C31.9676 40.3497 36.1192 36.1979 36.1192 31.0948C36.1192 25.9916 31.9674 21.8398 26.8643 21.8398ZM26.8643 37.5995C23.2775 37.5995 20.3594 34.6815 20.3594 31.0946C20.3594 27.5077 23.2774 24.5897 26.8643 24.5897C30.4512 24.5897 33.3692 27.5077 33.3692 31.0946C33.3692 34.6815 30.451 37.5995 26.8643 37.5995Z" fill="#3DEDEC"></path>
<path d="M26.8644 12.6925C16.7173 12.6925 8.46216 20.9477 8.46216 31.0947C8.46216 41.2417 16.7173 49.4969 26.8644 49.4969C37.0114 49.4969 45.2666 41.2417 45.2666 31.0947C45.2666 20.9477 37.0114 12.6925 26.8644 12.6925ZM26.8644 46.7468C18.2337 46.7468 11.2122 39.7252 11.2122 31.0946C11.2122 22.4639 18.2337 15.4424 26.8644 15.4424C35.495 15.4424 42.5165 22.4639 42.5165 31.0946C42.5165 39.7252 35.495 46.7468 26.8644 46.7468Z" fill="#3DEDEC"></path>
<path d="M52.3111 33.1273C51.5579 33.027 50.8668 33.5562 50.7667 34.3088C50.2608 38.109 48.8272 41.7801 46.6208 44.9256C46.1847 45.5474 46.3352 46.4048 46.9568 46.8409C47.1971 47.0094 47.4724 47.0904 47.7452 47.0904C48.1782 47.0904 48.6046 46.8863 48.8721 46.5049C51.3309 42.9995 52.9287 38.9076 53.4925 34.6717C53.5928 33.9191 53.0638 33.2276 52.3111 33.1273Z" fill="#3DEDEC"></path>
<path d="M44.6319 10.9446C39.7252 6.61486 33.4151 4.23035 26.8645 4.23035C19.6887 4.23035 12.9424 7.02473 7.86841 12.0988C2.79439 17.1729 0 23.9192 0 31.095C0 38.2707 2.79439 45.017 7.86841 50.091C12.9424 55.165 19.6887 57.9594 26.8645 57.9594C33.204 57.9594 39.3584 55.7093 44.1938 51.6235C44.7738 51.1334 44.8468 50.2659 44.3567 49.6858C43.8665 49.1056 42.999 49.0329 42.4189 49.523C38.0792 53.1899 32.5553 55.2094 26.8645 55.2094C13.5678 55.2094 2.75001 44.3916 2.75001 31.095C2.75001 17.7983 13.5678 6.98036 26.8645 6.98036C32.7446 6.98036 38.4084 9.12049 42.8124 13.0065C47.1781 16.8586 50.0031 22.1414 50.7669 27.8814C50.8672 28.6342 51.559 29.1636 52.3113 29.0631C53.0641 28.9629 53.5931 28.2714 53.493 27.5187C52.6415 21.1215 49.4947 15.2354 44.6319 10.9446Z" fill="#3DEDEC"></path>
<path d="M51.9683 10.5846C52.3078 10.5846 52.648 10.4596 52.9137 10.2077L54.574 8.63484C55.1252 8.11259 55.1487 7.24234 54.6265 6.69096C54.1042 6.13958 53.234 6.11621 52.6826 6.63846L51.0223 8.21134C50.4711 8.73359 50.4476 9.60385 50.9698 10.1552C51.2403 10.4406 51.604 10.5846 51.9683 10.5846Z" fill="#3DEDEC"></path>
<path d="M56.5251 13.6935L54.2386 13.6428C53.481 13.6251 52.8503 14.2278 52.8336 14.9871C52.8167 15.7462 53.4186 16.3753 54.1779 16.3921L56.4644 16.4427C56.4747 16.443 56.485 16.4431 56.4954 16.4431C57.2405 16.4431 57.8529 15.8473 57.8695 15.0985C57.8861 14.3393 57.2842 13.7103 56.5251 13.6935Z" fill="#3DEDEC"></path>
<path d="M62.48 31.0948L63.7962 28.0727C64.126 27.315 64.0527 26.4499 63.5998 25.7588C63.1468 25.0675 62.383 24.6549 61.5567 24.6549H53.7557C52.7835 24.6549 51.9044 25.2309 51.5162 26.1223L49.9495 29.7199H26.8646C25.6445 29.6816 25.0119 31.3253 25.9425 32.1148L43.0662 47.5967L41.8156 51.316C41.5058 52.2375 41.7716 53.2543 42.4927 53.9063L48.2792 59.138C48.7347 59.5498 49.3172 59.7695 49.9145 59.7694C50.1211 59.7694 50.3296 59.7432 50.5351 59.6894C51.3346 59.4804 51.9692 58.8879 52.2326 58.1047L53.2831 54.9804L56.2861 53.6214C57.0389 53.2806 57.5646 52.5898 57.6923 51.7733C57.8199 50.9568 57.5301 50.1384 56.9171 49.5841L51.1306 44.3524C50.4096 43.7004 49.3712 43.5381 48.4854 43.9389L44.9105 45.5567L30.4358 32.4698H49.9495L51.5161 36.0675C51.9042 36.9588 52.7834 37.5348 53.7556 37.5348H61.5565C62.3829 37.5348 63.1468 37.1221 63.5997 36.431C64.0525 35.7397 64.1259 34.8747 63.796 34.1169L62.48 31.0948ZM49.4356 46.5272L54.7248 51.3093L52.0272 52.5301C51.4112 52.8089 50.9345 53.3363 50.7191 53.977L49.7754 56.7835L44.4862 52.0014L45.769 48.1866L49.4356 46.5272ZM59.9053 32.0701L61.0875 34.7848H53.9571L52.4047 31.2202C52.4085 31.1788 52.4111 31.1372 52.4111 31.0948C52.4111 31.0524 52.4085 31.0108 52.4047 30.9694L53.9571 27.4048H61.0875L59.9053 30.1194C59.6354 30.7393 59.6354 31.4503 59.9053 32.0701Z" fill="#FFBC00"></path>
</g>
<defs>
<clipPath id="clip0_913_8063">
<rect width="64" height="64" fill="white"></rect>
</clipPath>
</defs>
</svg>