<svg width="64" height="64" viewBox="0 0 64 64" fill="none" xmlns="http://www.w3.org/2000/svg">
<g clip-path="url(#clip0_913_8042)">
<path d="M32.0311 37.9362C28.7466 37.9362 26.0745 35.264 26.0745 31.9797C26.4016 24.0773 37.6617 24.0795 37.9878 31.9797C37.9878 35.264 35.3156 37.9362 32.0311 37.9362ZM32.0311 28.7732C30.2631 28.7732 28.8248 30.2116 28.8248 31.9795C29.0009 36.2331 35.0619 36.2319 35.2374 31.9795C35.2375 30.2116 33.7991 28.7732 32.0311 28.7732Z" fill="#FFBC00"></path>
<path d="M32.0312 22.4755C31.2717 22.4755 30.656 21.8598 30.656 21.1003V1.4191C30.656 0.65964 31.2717 0.0439453 32.0312 0.0439453C32.7906 0.0439453 33.4063 0.65964 33.4063 1.4191V21.1003C33.4063 21.8598 32.7906 22.4755 32.0312 22.4755Z" fill="#FFBC00"></path>
<path d="M20.1725 33.1312H1.37516C0.615695 33.1312 0 32.5155 0 31.756C0 30.9966 0.615695 30.3809 1.37516 30.3809H20.1725C21.9915 30.4507 22.0011 33.057 20.1725 33.1312Z" fill="#FFBC00"></path>
<path d="M62.6323 33.1312H43.8349C43.0754 33.1312 42.4597 32.5155 42.4597 31.756C42.4597 30.9966 43.0754 30.3809 43.8349 30.3809H62.6323C64.4512 30.4507 64.4608 33.057 62.6323 33.1312Z" fill="#FFBC00"></path>
<path d="M32.0312 63.9556C31.2717 63.9556 30.656 63.34 30.656 62.5805V43.783C30.656 43.0235 31.2717 42.4078 32.0312 42.4078C32.7906 42.4078 33.4063 43.0235 33.4063 43.783V62.5804C33.4063 63.34 32.7906 63.9556 32.0312 63.9556Z" fill="#FFBC00"></path>
<path d="M33.4062 53.4061V56.1618C45.744 55.4678 55.6434 45.4983 56.2252 33.1312H53.4719C52.8956 43.9813 44.227 52.7187 33.4062 53.4061Z" fill="#3DEDEC"></path>
<path d="M30.656 10.5528V7.797C18.4671 8.48257 8.65925 18.2213 7.86304 30.3808H10.6187C11.4057 19.7385 19.9842 11.2308 30.656 10.5528Z" fill="#3DEDEC"></path>
<path d="M53.4435 30.3808H56.1992C55.403 18.2214 45.595 8.4827 33.4062 7.797V10.5527C44.0781 11.2308 52.6566 19.7385 53.4435 30.3808Z" fill="#3DEDEC"></path>
<path d="M10.5902 33.1312H7.83691C8.41873 45.4983 18.3181 55.4678 30.656 56.1618V53.4061C19.8351 52.7187 11.1665 43.9813 10.5902 33.1312Z" fill="#3DEDEC"></path>
<path d="M18.5576 33.1312H15.7991C16.36 41.1136 22.7031 47.5254 30.6558 48.1941V45.433C24.2208 44.78 19.1056 39.5962 18.5576 33.1312Z" fill="#3DEDEC"></path>
<path d="M33.4062 45.4328V48.1938C41.3589 47.5251 47.7021 41.1134 48.2631 33.131H45.5045C44.9566 39.5961 39.8414 44.7799 33.4062 45.4328Z" fill="#3DEDEC"></path>
<path d="M45.459 30.3808H48.2257C47.4642 22.607 41.2099 16.421 33.4062 15.7648V18.5258C39.6922 19.1638 44.7188 24.1251 45.459 30.3808Z" fill="#3DEDEC"></path>
<path d="M30.6561 18.5261V15.765C22.8523 16.4212 16.5981 22.6072 15.8367 30.381H18.6034C19.3436 24.1252 24.37 19.1639 30.6561 18.5261Z" fill="#3DEDEC"></path>
</g>
<defs>
<clipPath id="clip0_913_8042">
<rect width="64" height="64" fill="white"></rect>
</clipPath>
</defs>
</svg>