<svg width="64" height="64" viewBox="0 0 64 64" fill="none" xmlns="http://www.w3.org/2000/svg">
<g clip-path="url(#clip0_939_6888)">
<path d="M17.7389 11.8674L4.72339 16.6233V31.1503" stroke="#3DEDEC" stroke-width="2.75" stroke-miterlimit="10" stroke-linecap="round" stroke-linejoin="round"></path>
<path d="M59.2764 44.21V55.1091" stroke="#3DEDEC" stroke-width="2.75" stroke-miterlimit="10" stroke-linecap="round" stroke-linejoin="round"></path>
<path d="M46.5222 11.9629L59.2763 16.6233V32.4714" stroke="#3DEDEC" stroke-width="2.75" stroke-miterlimit="10" stroke-linecap="round" stroke-linejoin="round"></path>
<path d="M18.0549 25.9119V1.37512H45.9447V25.226" stroke="#3DEDEC" stroke-width="2.75" stroke-miterlimit="10" stroke-linecap="round" stroke-linejoin="round"></path>
<path d="M34.75 62.6251H29.25" stroke="#3DEDEC" stroke-width="2.75" stroke-miterlimit="10" stroke-linecap="round" stroke-linejoin="round"></path>
<path d="M28.145 11.6525V15.4163" stroke="#3DEDEC" stroke-width="2.75" stroke-miterlimit="10" stroke-linecap="round" stroke-linejoin="round"></path>
<path d="M35.8547 11.6525V15.4163" stroke="#3DEDEC" stroke-width="2.75" stroke-miterlimit="10" stroke-linecap="round" stroke-linejoin="round"></path>
<path d="M28.145 21.6534V25.4173" stroke="#3DEDEC" stroke-width="2.75" stroke-miterlimit="10" stroke-linecap="round" stroke-linejoin="round"></path>
<path d="M11.7151 21.6534V25.4173" stroke="#3DEDEC" stroke-width="2.75" stroke-miterlimit="10" stroke-linecap="round" stroke-linejoin="round"></path>
<path d="M52.2847 21.6534V25.4173" stroke="#3DEDEC" stroke-width="2.75" stroke-miterlimit="10" stroke-linecap="round" stroke-linejoin="round"></path>
<path d="M35.8547 21.6534V25.4173" stroke="#3DEDEC" stroke-width="2.75" stroke-miterlimit="10" stroke-linecap="round" stroke-linejoin="round"></path>
<path d="M27.5961 56.3751V38.3202C27.5961 31.4672 22.0406 25.9117 15.1876 25.9117C8.33455 25.9117 2.77905 31.4672 2.77905 38.3202V56.5815" stroke="#FFBC00" stroke-width="2.75" stroke-miterlimit="10" stroke-linecap="round" stroke-linejoin="round"></path>
<path d="M59.2798 37.3752C59.7225 36.7264 59.9813 35.9422 59.9813 35.0976C59.9813 33.2677 58.7661 31.7222 57.0989 31.2223C57.117 31.0669 57.1274 30.9091 57.1274 30.7488C57.1274 28.5143 55.316 26.7029 53.0815 26.7029C52.8195 26.7029 52.5636 26.7288 52.3155 26.7763C51.6564 25.4358 50.2778 24.5129 48.6831 24.5129C47.0885 24.5129 45.7099 25.4358 45.0508 26.7763C44.8026 26.7288 44.5468 26.7029 44.2848 26.7029C42.0503 26.7029 40.2389 28.5143 40.2389 30.7488C40.2389 30.9091 40.2493 31.0669 40.2674 31.2223C38.6001 31.7222 37.385 33.2677 37.385 35.0976C37.385 35.9354 37.6398 36.7139 38.076 37.3597" stroke="#FFBC00" stroke-width="2.75" stroke-miterlimit="10" stroke-linecap="round" stroke-linejoin="round"></path>
<path d="M18.0037 48.6798L18.9209 51.9984C19.2994 53.3962 20.4489 54.4511 21.8739 54.7084L25.2974 55.3268C26.7906 55.5966 27.9741 56.7396 28.2956 58.2226L29.25 62.6251H1.375L2.32937 58.2226C2.65087 56.7396 3.83437 55.5966 5.32762 55.3268L8.75112 54.7084C10.1761 54.4511 11.3256 53.3962 11.7041 51.9984L12.5875 48.8019" stroke="#3DEDEC" stroke-width="2.75" stroke-miterlimit="10" stroke-linecap="round" stroke-linejoin="round"></path>
<path d="M15.1508 48.9599C11.1695 48.872 7.98804 45.6195 7.98804 41.6374V39.5704V39.5689C8.01341 36.7299 10.3219 34.4419 13.161 34.4419C14.511 34.4419 15.778 35.094 16.5625 36.1926L16.8463 36.59C18.1818 38.4603 20.3384 39.5703 22.6367 39.5703V41.6373C22.6368 45.7456 19.2582 49.0505 15.1508 48.9599Z" stroke="#3DEDEC" stroke-width="2.75" stroke-miterlimit="10" stroke-linecap="round" stroke-linejoin="round"></path>
<path d="M8.75 54.75L12.6134 56.944C13.3992 57.3904 14.2876 57.625 15.1915 57.625C16.0505 57.625 16.8964 57.413 17.6539 57.0079L21.875 54.75" stroke="#3DEDEC" stroke-width="2.75" stroke-miterlimit="10" stroke-linecap="round" stroke-linejoin="round"></path>
<path d="M51.4301 48.8019L52.2959 51.9984C52.6744 53.3961 53.8239 54.451 55.2489 54.7084L58.6724 55.3268C60.1656 55.5965 61.3491 56.7395 61.6706 58.2225L62.625 62.6251H34.75L35.7044 58.2226C36.0259 56.7396 37.2094 55.5966 38.7026 55.3269L42.1261 54.7085C43.5511 54.4511 44.7006 53.3963 45.0791 51.9985L45.9449 48.802" stroke="#3DEDEC" stroke-width="2.75" stroke-miterlimit="10" stroke-linecap="round" stroke-linejoin="round"></path>
<path d="M42.125 54.75L45.9884 56.944C46.7743 57.3904 47.6626 57.625 48.5665 57.625C49.4255 57.625 50.2714 57.413 51.0289 57.0079L55.25 54.75" stroke="#3DEDEC" stroke-width="2.75" stroke-miterlimit="10" stroke-linecap="round" stroke-linejoin="round"></path>
<path d="M55.4998 37.3751H57.7498C59.5446 37.3751 60.9998 38.8302 60.9998 40.6251C60.9998 42.42 59.5446 43.8751 57.7498 43.8751H55.8083" stroke="#3DEDEC" stroke-width="2.75" stroke-miterlimit="10" stroke-linecap="round" stroke-linejoin="round"></path>
<path d="M41.8669 43.8751H39.6248C37.8299 43.8751 36.3748 42.42 36.3748 40.6251C36.3748 38.8302 37.8299 37.3751 39.6248 37.3751H41.8669" stroke="#3DEDEC" stroke-width="2.75" stroke-miterlimit="10" stroke-linecap="round" stroke-linejoin="round"></path>
<path d="M41.8669 37.3751C43.5639 37.3751 45.0782 36.595 46.0723 35.3745C48.6704 36.6898 51.5417 37.3751 54.4538 37.3751H55.4998V42.3126C55.4998 46.075 52.4498 49.1251 48.6873 49.1251C44.9249 49.1251 41.8748 46.0751 41.8748 42.3126L41.8669 37.3751Z" stroke="#3DEDEC" stroke-width="2.75" stroke-miterlimit="10" stroke-linecap="round" stroke-linejoin="round"></path>
</g>
<defs>
<clipPath id="clip0_939_6888">
<rect width="64" height="64" fill="white"></rect>
</clipPath>
</defs>
</svg>