<svg width="64" height="64" viewBox="0 0 64 64" fill="none" xmlns="http://www.w3.org/2000/svg">
<g clip-path="url(#clip0_939_6791)">
<path d="M8.04198 12.2901C5.42398 16.1969 3.8966 20.8951 3.89673 25.9476C3.89685 30.262 5.00873 34.3166 6.96123 37.8405L8.98573 41.3586C11.4489 45.5929 12.7464 50.4044 12.7464 55.3031V62.6251H38.704C38.433 61.1551 38.2891 59.6605 38.2762 58.1579L38.2761 58.1496H45.2586C48.9475 58.1496 51.9379 55.1549 51.9379 51.4606V46.5925C51.9379 45.6349 52.7129 44.8579 53.6703 44.8556L57.6033 44.8465C58.985 44.8432 60.1033 43.7221 60.1033 42.3402C60.1033 41.869 59.9705 41.4072 59.7201 41.008L54.0146 31.9142C53.3956 30.9276 53.1191 29.7642 53.228 28.6045C53.4197 26.562 53.2951 24.502 52.8582 22.4976L52.5266 20.9759C50.229 9.7895 40.3302 1.37675 28.4666 1.37512C23.6962 1.3745 19.2416 2.7365 15.471 5.093" stroke="#3DEDEC" stroke-width="2.75" stroke-miterlimit="10" stroke-linecap="round" stroke-linejoin="round"></path>
<path d="M36.6872 33.8387C41.2876 29.2383 41.2876 21.7795 36.6872 17.1791C32.0868 12.5787 24.628 12.5787 20.0276 17.1791C15.4271 21.7795 15.4271 29.2383 20.0276 33.8387C24.628 38.4392 32.0868 38.4392 36.6872 33.8387Z" stroke="#3DEDEC" stroke-width="2.75" stroke-miterlimit="10" stroke-linecap="round" stroke-linejoin="round"></path>
<path d="M17.1371 10.8251C20.2507 8.44023 24.1416 7.02161 28.3576 7.02161C38.5515 7.02161 46.845 15.315 46.845 25.5089C46.845 35.7027 38.5516 43.9961 28.3576 43.9961C18.1637 43.9961 9.87036 35.7027 9.87036 25.5089C9.87036 21.2164 11.3409 17.2609 13.8046 14.1196" stroke="#FFBC00" stroke-width="2.75" stroke-miterlimit="10" stroke-linecap="round" stroke-linejoin="round"></path>
<path d="M30.3002 30.1961C32.8889 29.1238 34.1181 26.1561 33.0459 23.5674C31.9736 20.9788 29.0058 19.7495 26.4172 20.8218C23.8285 21.8941 22.5992 24.8618 23.6715 27.4505C24.7438 30.0391 27.7116 31.2684 30.3002 30.1961Z" stroke="#FFBC00" stroke-width="2.75" stroke-miterlimit="10" stroke-linecap="round" stroke-linejoin="round"></path>
<path d="M16.3388 6.29785L17.4328 14.4464L9.28431 13.3524L4.42993 8.4981L10.6006 7.6141L11.4846 1.4436L16.3388 6.29785Z" stroke="#FFBC00" stroke-width="2.75" stroke-miterlimit="10" stroke-linecap="round" stroke-linejoin="round"></path>
<path d="M10.7273 7.74084L28.4953 25.5088" stroke="#FFBC00" stroke-width="2.75" stroke-miterlimit="10" stroke-linecap="round" stroke-linejoin="round"></path>
</g>
<defs>
<clipPath id="clip0_939_6791">
<rect width="64" height="64" fill="white"></rect>
</clipPath>
</defs>
</svg>